PathFileType	4	(X/Y/Z)	c:\Git\powerlifing_model_clean\simulations\HC835B\Session1\HC835B_OGW_0004\marker_experimental.trc
DataRate	CameraRate	NumFrames	NumMarkers	Units	OrigDataRate	OrigDataStartFrame	OrigNumFrames
240.000000	240.000000	4	38	mm	240.000000	107	429
Frame#	Time	RPSI			LPSI			RASI			LASI			RTH1			RTH2			RTH3			RTH4			RSK1			RSK2			RSK3			RSK4			RCAL1			RCAL2			RCAL3			RST			RPT			RTN			RFMB			RSMB			RVMB			RFMH			RSMH			RVMH			RPM			LTH1			LTH2			LTH3			LTH4			LSK1			LSK2			LSK3			LSK4			LCAL1			LCAL2			LCAL3			LFMH			LVMH			
		X1	Y1	Z1	X2	Y2	Z2	X3	Y3	Z3	X4	Y4	Z4	X5	Y5	Z5	X6	Y6	Z6	X7	Y7	Z7	X8	Y8	Z8	X9	Y9	Z9	X10	Y10	Z10	X11	Y11	Z11	X12	Y12	Z12	X13	Y13	Z13	X14	Y14	Z14	X15	Y15	Z15	X16	Y16	Z16	X17	Y17	Z17	X18	Y18	Z18	X19	Y19	Z19	X20	Y20	Z20	X21	Y21	Z21	X22	Y22	Z22	X23	Y23	Z23	X24	Y24	Z24	X25	Y25	Z25	X26	Y26	Z26	X27	Y27	Z27	X28	Y28	Z28	X29	Y29	Z29	X30	Y30	Z30	X31	Y31	Z31	X32	Y32	Z32	X33	Y33	Z33	X34	Y34	Z34	X35	Y35	Z35	X36	Y36	Z36	X37	Y37	Z37	X38	Y38	Z38	

108	0.4458333333333333	473.9839172363282	1138.730102539063	-1915.4423828125	583.3811645507814	1131.443115234375	-1911.767211914063	400.4565734863282	1092.286987304688	-1712.98876953125	637.5848999023439	1091.488159179688	-1700.653564453125	348.6429748535157	816.1824951171877	-1820.966186523438	359.1578063964844	798.0217895507815	-1763.827270507813	364.2941589355469	734.3090820312501	-1808.230712890625	387.7344970703126	717.7473754882814	-1757.249267578125	439.8764038085939	292.2966308593751	-1954.042114257813	434.5453491210939	270.2889099121094	-1896.431884765625	447.476287841797	234.9270019531251	-1944.5908203125	454.0969848632814	215.2223205566407	-1887.83203125	523.3621215820314	88.42223358154298	-2012.404174804688	552.9388427734376	50.08817672729494	-2000.426513671875	490.1893920898439	51.97596740722658	-2013.982788085938	556.6525878906251	63.77545166015626	-1930.855346679688	458.4727172851564	62.75169372558595	-1958.176147460938	535.6141967773439	82.80651092529298	-1876.826049804688	525.4609985351564	66.69565582275392	-1845.68017578125	476.9889221191407	90.66120910644533	-1844.395263671875	440.1856384277345	38.2373161315918	-1917.494384765625	517.8583984375001	41.08438873291016	-1791.761596679688	463.194061279297	54.58993530273439	-1786.813842773438	409.9626770019532	31.19263458251954	-1842.3974609375	465.353973388672	41.78963088989259	-1727.31298828125	731.8099975585939	828.7427978515627	-1673.870971679688	725.5925292968751	845.1765747070315	-1615.948608398438	730.0236206054689	764.2089843750001	-1617.728881835938	708.5872802734376	779.823669433594	-1562.3134765625	683.2471313476564	340.5440673828126	-1662.97021484375	694.4108276367189	315.5313110351563	-1616.904174804688	681.0693359375001	284.1099853515626	-1653.776245117188	677.5826416015626	261.6786804199219	-1601.756103515625	612.9151000976564	154.5539245605469	-1721.40966796875	638.5401611328126	114.4286346435547	-1731.647583007813	580.8623046875001	118.9752197265625	-1719.880126953125	604.6369018554689	80.89440155029298	-1504.416381835938	697.9535522460939	50.24006652832033	-1557.78271484375	
109	0.45	474.4659118652345	1137.853515625	-1909.163452148438	583.7704467773439	1130.367065429688	-1905.228393554688	400.1682128906251	1091.31884765625	-1707.005737304688	637.3677978515626	1089.977416992188	-1693.929443359375	348.5349121093751	815.8133544921877	-1816.039184570313	359.2450561523438	797.262390136719	-1758.944213867188	364.2897644042969	733.8248291015626	-1803.7041015625	387.8362121582032	716.8292846679689	-1753.066040039063	440.1450500488282	292.6424865722657	-1952.618408203125	434.7753295898439	270.2815246582032	-1894.998291015625	447.6686401367189	234.9391632080079	-1943.42041015625	454.3450927734376	215.2228546142579	-1886.712768554688	523.6800537109376	88.72107696533205	-2012.038452148438	553.1657714843751	50.29931259155275	-2000.142578125	490.393768310547	52.26366806030275	-2013.765991210938	556.8455200195314	63.80482482910158	-1930.555908203125	458.6907043457032	63.06660461425783	-1957.9658203125	535.7493286132814	82.68128967285158	-1876.357666015625	525.5606079101564	66.54967498779298	-1845.373901367188	477.0746459960939	90.54358673095705	-1844.119018554688	440.284393310547	38.15116500854493	-1917.435424804688	517.7670288085939	41.01677703857423	-1791.563842773438	463.1384887695314	54.402645111084	-1786.643920898438	409.9764404296876	31.1886157989502	-1842.373291015625	465.2286987304689	41.19089126586915	-1727.226928710938	730.8796386718751	827.8379516601565	-1666.878173828125	724.5028076171876	844.2907714843752	-1608.937255859375	728.8738403320314	763.2858886718751	-1610.700439453125	707.2860107421876	778.9440917968752	-1555.322143554688	683.0375976562501	336.8082580566407	-1648.621948242188	693.3637084960939	312.9426879882813	-1601.839721679688	682.4861450195314	281.7506713867188	-1639.073364257813	677.2846069335939	259.7068481445313	-1585.357543945313	612.9774169921876	148.8537292480469	-1702.102783203125	638.7142944335939	108.4578018188477	-1710.7373046875	581.0747070312501	113.22265625	-1699.365600585938	604.6310424804689	81.70545196533205	-1482.802978515625	697.9822998046876	49.36356735229494	-1535.187622070313	
110	0.4541666666666667	474.9465332031251	1136.933349609375	-1902.8271484375	584.1664428710939	1129.219970703125	-1898.615600585938	399.842254638672	1090.31103515625	-1700.759887695313	637.2857666015626	1088.40283203125	-1687.187744140625	348.4642944335938	815.2885742187502	-1811.160888671875	359.1536254882813	796.4000244140627	-1754.310791015625	364.2664489746094	733.2935791015626	-1799.258056640625	387.9039001464845	716.0856323242189	-1748.662231445313	440.3557128906251	292.8863525390626	-1951.055053710938	434.917694091797	270.0849914550782	-1893.747680664063	447.9164123535157	235.1458282470704	-1942.290283203125	454.4944458007814	214.9906463623047	-1885.724731445313	523.9697875976564	89.04382324218751	-2011.666015625	553.4098510742189	50.50463485717775	-1999.865966796875	490.6791381835939	52.64161682128908	-2013.545288085938	556.9777221679689	63.7540626525879	-1930.227783203125	458.8697509765626	63.2179298400879	-1957.783203125	536.1384277343751	82.56227874755861	-1876.32373046875	525.5946044921876	66.38302612304689	-1845.09619140625	477.1721496582032	90.42455291748048	-1843.820678710938	440.4754333496095	38.42194747924805	-1917.275024414063	517.6939697265626	40.86354064941407	-1791.349487304688	463.0691833496095	54.20946502685548	-1786.423095703125	409.9884338378907	31.17227172851563	-1842.353271484375	465.0877380371095	40.79563140869141	-1726.993530273438	729.8706054687501	826.8563232421877	-1659.91650390625	723.3804931640626	843.2705688476565	-1602.045288085938	727.6678466796876	762.2794799804689	-1603.906494140625	705.9852294921876	777.9077758789065	-1548.516723632813	682.9592895507814	333.0948486328126	-1634.318603515625	693.2359619140626	310.5928039550782	-1586.842651367188	680.6630859375001	277.3032226562501	-1622.025512695313	676.9996337890626	257.7843627929688	-1568.859497070313	613.1711425781251	143.3639373779297	-1682.600463867188	638.9958496093751	102.705680847168	-1689.923461914063	581.2761840820314	107.7727966308594	-1678.74267578125	604.5335083007814	82.46007537841798	-1461.340576171875	698.0260009765626	48.79983139038087	-1512.567260742188	
111	0.4583333333333333	475.4480590820314	1136.051025390625	-1896.426147460938	584.5768432617189	1128.096313476563	-1892.0224609375	399.3912658691407	1088.8193359375	-1694.693237304688	637.2684326171876	1086.723510742188	-1680.440063476563	348.3557739257813	814.663757324219	-1806.306274414063	359.1372070312501	795.598815917969	-1749.430297851563	364.2185974121094	732.7471313476564	-1794.785400390625	387.8767395019532	715.3146972656251	-1744.214477539063	440.5532836914064	293.0267333984376	-1949.633544921875	435.171112060547	270.0963134765626	-1892.272827148438	448.1441040039064	235.3415985107422	-1941.102294921875	454.6646118164064	214.7592468261719	-1884.725341796875	524.2905883789064	89.3489456176758	-2011.306640625	553.6683349609376	50.74866485595705	-1999.575317382813	490.9385986328126	52.99839782714845	-2013.310424804688	557.1640014648439	63.75358200073244	-1929.89208984375	459.0858154296876	63.40783691406251	-1957.578979492188	535.9589843750001	82.51126861572267	-1875.558471679688	525.6542968750001	66.24586486816408	-1844.763427734375	477.2578125000001	90.30985260009767	-1843.51904296875	440.6230773925782	38.50838470458985	-1917.177734375	517.6093139648439	40.75361633300782	-1791.152587890625	462.9883728027345	54.02371215820314	-1786.232421875	409.9673461914064	31.17829895019532	-1842.343139648438	464.9683837890626	40.36820602416993	-1726.767700195313	728.7617187500001	825.6618652343752	-1653.200317382813	722.2821044921876	842.067321777344	-1595.291381835938	726.3365478515626	761.0692749023439	-1597.220825195313	704.7009887695314	776.7058105468752	-1541.837036132813	682.8473510742189	329.5230712890626	-1620.08740234375	692.8540039062501	308.3723754882813	-1571.875732421875	680.5501708984376	274.0347595214844	-1606.160522460938	676.7542724609376	256.0758056640626	-1552.460571289063	613.3923339843751	138.0526123046875	-1662.923583984375	639.3242797851564	97.17511749267581	-1668.951782226563	581.5344238281251	102.4422607421875	-1657.978149414063	604.6066284179689	83.81682586669923	-1439.752807617188	698.1345825195314	48.5705909729004	-1489.99755859375	
